<svg xmlns="http://www.w3.org/2000/svg" width="88" height="88" viewBox="0 0 88 88"><circle cx="44" cy="44" r="44" fill="#f2bc35"/><circle cx="44" cy="44" r="44" fill="#f3bc36"/><path d="M59.152,64.762,68.7,55.214l9.57,9.57,5.557-5.557L68.7,44.1,53.591,59.2ZM44.1,68.7l5.557-5.557L55.214,68.7l-5.557,5.557Zm15.052,3.96L68.7,82.178l9.57-9.57,5.557,5.557L68.7,93.3,53.591,78.191ZM82.178,68.7l5.557-5.557L93.3,68.7l-5.562,5.557Zm-7.823,0L68.7,74.328,63.064,68.7l.981-.986.493-.488L68.7,63.064Z" transform="translate(-24.696 -24.696)" fill="#fff" fill-rule="evenodd"/></svg>