<svg xmlns="http://www.w3.org/2000/svg" width="88" height="88" viewBox="0 0 88 88"><g transform="translate(-264 -279)"><circle cx="44" cy="44" r="44" transform="translate(264 279)" fill="#1b1f30"/><g transform="translate(272.556 311.185)"><path d="M62.008,21.217V3H65.67V21.217Z" transform="translate(-11.483 -3)" fill="#f7a600"/><path d="M7.85,27.858H0V9.641H7.534c3.662,0,5.8,2,5.8,5.117a4.206,4.206,0,0,1-2.319,3.761,4.231,4.231,0,0,1,2.581,4.094C13.592,26.016,11.2,27.858,7.85,27.858ZM7.245,12.814H3.662v4.2H7.245c1.554,0,2.423-.844,2.423-2.1S8.8,12.814,7.245,12.814Zm.237,7.394H3.662v4.478h3.82a2.248,2.248,0,1,0,0-4.478Z" transform="translate(0 -4.23)" fill="#fff"/><path d="M28.281,20.387v7.471H24.645V20.387L19.007,9.641h3.977l3.5,7.343,3.451-7.343h3.977Z" transform="translate(-3.52 -4.23)" fill="#fff"/><path d="M48.262,27.858h-7.85V9.641h7.534c3.662,0,5.8,2,5.8,5.117a4.206,4.206,0,0,1-2.319,3.761A4.231,4.231,0,0,1,54,22.614C54,26.016,51.608,27.858,48.262,27.858Zm-.605-15.044H44.073v4.2h3.583c1.554,0,2.423-.844,2.423-2.1S49.21,12.814,47.656,12.814Zm.237,7.394h-3.82v4.478h3.82a2.248,2.248,0,1,0,0-4.478Z" transform="translate(-7.483 -4.23)" fill="#fff"/><path d="M79.04,12.814V27.86H75.379V12.814h-4.9V9.641H83.94v3.173Z" transform="translate(-13.051 -4.23)" fill="#fff"/></g></g></svg>