<svg xmlns="http://www.w3.org/2000/svg" width="88" height="88" viewBox="0 0 88 88"><circle cx="44" cy="44" r="44" fill="#2da7e0"/><path d="M8015.327-22.017c-1.013-.208-1.547-.369-1.743-.418-11.559-3.035-20.479-19.061-9.789-33.107,4.811-6.316,13.671-10.963,13.947-28.2,0-.006.006-.006.006-.012-.019-.357.22-.228.234-.216,2.69,1.911,7.857,9.863,7.674,18.988-.216,10.618-15.465,18.187-14.359,30.286.486,5.21,2.942,9.266,4.326,11.669.346.6.258,1.024-.146,1.024A.737.737,0,0,1,8015.327-22.017Zm9.365-.724c-3.933-4.51-9-11.012,1.055-25.346,2.986-4.254,5.254-8.8,5.5-10.993.012-.117.141-.123.232-.057,2.322,1.881,8.9,8.364,7.989,18.631a20.064,20.064,0,0,1-10.089,15.437c-2.323,1.1-2.863,1.818-3.221,2.383-.2.311-.392.51-.635.51C8025.3-22.177,8025.038-22.343,8024.692-22.741Z" transform="translate(-7975.277 97)" fill="#fff"/></svg>